# xmcd
#
# Track frame offsets:
#	150
#	24508
#	43528
#	63155
#
# Disc length: 1149 seconds
#
# Revision: 1
# Processed by: cddbd v1.5PL3 Copyright (c) Steve Scherf et al.
# Submitted via: CDex 1.50Beta5
#
DISCID=28047b04
DTITLE=MISIA - BACK BLOCKS
DYEAR=2002
DGENRE=Rock
TTITLE0=BACK BLOCKS
TTITLE1=めくばせのブルース
TTITLE2=LAILA(So So Def Remix)
TTITLE3=飛び方を忘れた小さな鳥(STAR OCEAN version)
EXTD=
EXTT0=
EXTT1=
EXTT2=
EXTT3=
PLAYORDER=
